<?xml version="1.0" encoding="utf-8"?>
<!-- Generator: Adobe Illustrator 25.3.0, SVG Export Plug-In . SVG Version: 6.00 Build 0)  -->
<svg version="1.1" id="Layer_1" xmlns="http://www.w3.org/2000/svg" xmlns:xlink="http://www.w3.org/1999/xlink" x="0px" y="0px"
	 viewBox="0 0 250 250" style="enable-background:new 0 0 250 250;" xml:space="preserve">
<style type="text/css">
	.st0{fill:#49210C;}
	.st1{fill:url(#SVGID_2_);}
	.st2{fill:#223264;}
	.st3{fill:url(#SVGID_3_);}
	.st4{fill:url(#SVGID_4_);}
	.st5{fill:url(#SVGID_5_);}
	.st6{fill:url(#SVGID_6_);}
	.st7{fill:url(#SVGID_7_);}
	.st8{fill:url(#SVGID_8_);}
	.st9{fill:url(#SVGID_9_);}
	.st10{fill:url(#SVGID_10_);}
	.st11{fill:url(#SVGID_11_);}
	.st12{fill:url(#SVGID_12_);}
	.st13{fill:none;}
	.st14{fill:none;stroke:#141414;stroke-width:0.5;stroke-miterlimit:10;}
	.st15{fill:none;stroke:url(#SVGID_13_);stroke-width:4;stroke-miterlimit:10;}
	.st16{fill:#FFFFFF;}
	.st17{enable-background:new    ;}
	.st18{fill:url(#SVGID_14_);}
	.st19{fill:url(#SVGID_15_);}
	.st20{fill:url(#SVGID_16_);}
	.st21{fill:url(#SVGID_17_);}
	.st22{fill:url(#SVGID_18_);}
	.st23{fill:url(#SVGID_19_);}
	.st24{fill:url(#SVGID_20_);}
	.st25{fill:url(#SVGID_21_);}
	.st26{fill:url(#SVGID_22_);}
	.st27{fill:url(#SVGID_23_);}
	.st28{fill:url(#SVGID_24_);}
	.st29{fill:none;stroke:url(#SVGID_25_);stroke-width:4;stroke-miterlimit:10;}
	.st30{fill:none;stroke:#223264;stroke-miterlimit:10;}
	.st31{fill:#008B2F;}
	.st32{fill:#9B600A;}
	.st33{fill:none;stroke:#000000;stroke-width:0.25;stroke-miterlimit:10;}
	.st34{fill:url(#SVGID_26_);}
	.st35{fill:url(#SVGID_27_);}
	.st36{fill:url(#SVGID_28_);}
	.st37{fill:url(#SVGID_29_);}
	.st38{fill:url(#SVGID_30_);}
	.st39{fill:url(#SVGID_31_);}
	.st40{fill:url(#SVGID_32_);}
	.st41{fill:url(#SVGID_33_);}
	.st42{fill:url(#SVGID_34_);}
	.st43{fill:url(#SVGID_35_);}
	.st44{fill:none;stroke:url(#SVGID_36_);stroke-width:4;stroke-miterlimit:10;}
	.st45{fill:none;stroke:url(#SVGID_37_);stroke-width:4;stroke-miterlimit:10;}
	.st46{fill:none;stroke:url(#SVGID_38_);stroke-width:4;stroke-miterlimit:10;}
	.st47{fill:none;stroke:url(#SVGID_39_);stroke-width:4;stroke-miterlimit:10;}
	.st48{fill:#93C01F;}
	.st49{fill:#CABA9F;}
	.st50{clip-path:url(#SVGID_41_);}
	.st51{clip-path:url(#SVGID_43_);}
	.st52{fill:url(#SVGID_44_);}
	.st53{fill:url(#SVGID_45_);}
	.st54{fill:url(#SVGID_46_);}
	.st55{fill:url(#SVGID_47_);}
	.st56{fill:url(#SVGID_48_);}
	.st57{fill:url(#SVGID_49_);}
	.st58{fill:url(#SVGID_50_);}
	.st59{fill:url(#SVGID_51_);}
	.st60{fill:url(#SVGID_52_);}
	.st61{fill:url(#SVGID_53_);}
	.st62{fill:none;stroke:url(#SVGID_54_);stroke-width:4;stroke-miterlimit:10;}
	.st63{fill:none;stroke:url(#SVGID_55_);stroke-width:4;stroke-miterlimit:10;}
	.st64{fill:none;stroke:url(#SVGID_56_);stroke-width:4;stroke-miterlimit:10;}
	.st65{fill:none;stroke:url(#SVGID_57_);stroke-width:4;stroke-miterlimit:10;}
	.st66{fill:url(#SVGID_58_);}
	.st67{fill-rule:evenodd;clip-rule:evenodd;fill:#FFFFFF;}
	.st68{fill:url(#SVGID_59_);}
	.st69{fill:url(#SVGID_60_);}
	.st70{fill:url(#SVGID_61_);}
	.st71{fill:url(#SVGID_62_);}
	.st72{fill:url(#SVGID_63_);}
</style>
<g>
	<g>
		<linearGradient id="SVGID_2_" gradientUnits="userSpaceOnUse" x1="62.0936" y1="62.0932" x2="187.9064" y2="187.9059">
			<stop  offset="0" style="stop-color:#1677F1"/>
			<stop  offset="0.1756" style="stop-color:#186EE9"/>
			<stop  offset="0.4613" style="stop-color:#1E56D3"/>
			<stop  offset="0.8194" style="stop-color:#262EB0"/>
			<stop  offset="1" style="stop-color:#2B189C"/>
		</linearGradient>
		<path class="st1" d="M213.96,125c0-49.13-39.83-88.96-88.96-88.96S36.04,75.87,36.04,125c0,44.4,32.53,81.21,75.06,87.88v-62.17
			H88.51V125h22.59v-19.6c0-22.3,13.28-34.61,33.6-34.61c9.73,0,19.91,1.74,19.91,1.74v21.89H153.4c-11.05,0-14.5,6.86-14.5,13.89
			V125h24.67l-3.94,25.72H138.9v62.17C181.43,206.21,213.96,169.4,213.96,125z"/>
		<path class="st16" d="M159.63,150.72l3.94-25.72H138.9v-16.69c0-7.04,3.45-13.89,14.5-13.89h11.22V72.53
			c0,0-10.18-1.74-19.91-1.74c-20.32,0-33.6,12.32-33.6,34.61V125H88.51v25.72h22.59v62.17c4.53,0.71,9.17,1.08,13.9,1.08
			c4.73,0,9.37-0.37,13.9-1.08v-62.17H159.63z"/>
	</g>
</g>
</svg>
