<?xml version="1.0" encoding="utf-8"?>
<!-- Generator: Adobe Illustrator 25.3.0, SVG Export Plug-In . SVG Version: 6.00 Build 0)  -->
<svg version="1.1" id="Layer_1" xmlns="http://www.w3.org/2000/svg" xmlns:xlink="http://www.w3.org/1999/xlink" x="0px" y="0px"
	 viewBox="0 0 250 250" style="enable-background:new 0 0 250 250;" xml:space="preserve">
<style type="text/css">
	.st0{fill:#49210C;}
	.st1{fill:url(#SVGID_2_);}
	.st2{fill:#223264;}
	.st3{fill:url(#SVGID_3_);}
	.st4{fill:url(#SVGID_4_);}
	.st5{fill:url(#SVGID_5_);}
	.st6{fill:url(#SVGID_6_);}
	.st7{fill:url(#SVGID_7_);}
	.st8{fill:url(#SVGID_8_);}
	.st9{fill:url(#SVGID_9_);}
	.st10{fill:url(#SVGID_10_);}
	.st11{fill:url(#SVGID_11_);}
	.st12{fill:url(#SVGID_12_);}
	.st13{fill:none;}
	.st14{fill:none;stroke:#141414;stroke-width:0.5;stroke-miterlimit:10;}
	.st15{fill:none;stroke:url(#SVGID_13_);stroke-width:4;stroke-miterlimit:10;}
	.st16{fill:#FFFFFF;}
	.st17{enable-background:new    ;}
	.st18{fill:url(#SVGID_14_);}
	.st19{fill:url(#SVGID_15_);}
	.st20{fill:url(#SVGID_16_);}
	.st21{fill:url(#SVGID_17_);}
	.st22{fill:url(#SVGID_18_);}
	.st23{fill:url(#SVGID_19_);}
	.st24{fill:url(#SVGID_20_);}
	.st25{fill:url(#SVGID_21_);}
	.st26{fill:url(#SVGID_22_);}
	.st27{fill:url(#SVGID_23_);}
	.st28{fill:url(#SVGID_24_);}
	.st29{fill:none;stroke:url(#SVGID_25_);stroke-width:4;stroke-miterlimit:10;}
	.st30{fill:none;stroke:#223264;stroke-miterlimit:10;}
	.st31{fill:#008B2F;}
	.st32{fill:#9B600A;}
	.st33{fill:none;stroke:#000000;stroke-width:0.25;stroke-miterlimit:10;}
	.st34{fill:url(#SVGID_26_);}
	.st35{fill:url(#SVGID_27_);}
	.st36{fill:url(#SVGID_28_);}
	.st37{fill:url(#SVGID_29_);}
	.st38{fill:url(#SVGID_30_);}
	.st39{fill:url(#SVGID_31_);}
	.st40{fill:url(#SVGID_32_);}
	.st41{fill:url(#SVGID_33_);}
	.st42{fill:url(#SVGID_34_);}
	.st43{fill:url(#SVGID_35_);}
	.st44{fill:none;stroke:url(#SVGID_36_);stroke-width:4;stroke-miterlimit:10;}
	.st45{fill:none;stroke:url(#SVGID_37_);stroke-width:4;stroke-miterlimit:10;}
	.st46{fill:none;stroke:url(#SVGID_38_);stroke-width:4;stroke-miterlimit:10;}
	.st47{fill:none;stroke:url(#SVGID_39_);stroke-width:4;stroke-miterlimit:10;}
	.st48{fill:#93C01F;}
	.st49{fill:#CABA9F;}
	.st50{clip-path:url(#SVGID_41_);}
	.st51{clip-path:url(#SVGID_43_);}
	.st52{fill:url(#SVGID_44_);}
	.st53{fill:url(#SVGID_45_);}
	.st54{fill:url(#SVGID_46_);}
	.st55{fill:url(#SVGID_47_);}
	.st56{fill:url(#SVGID_48_);}
	.st57{fill:url(#SVGID_49_);}
	.st58{fill:url(#SVGID_50_);}
	.st59{fill:url(#SVGID_51_);}
	.st60{fill:url(#SVGID_52_);}
	.st61{fill:url(#SVGID_53_);}
	.st62{fill:none;stroke:url(#SVGID_54_);stroke-width:4;stroke-miterlimit:10;}
	.st63{fill:none;stroke:url(#SVGID_55_);stroke-width:4;stroke-miterlimit:10;}
	.st64{fill:none;stroke:url(#SVGID_56_);stroke-width:4;stroke-miterlimit:10;}
	.st65{fill:none;stroke:url(#SVGID_57_);stroke-width:4;stroke-miterlimit:10;}
	.st66{fill:url(#SVGID_58_);}
	.st67{fill-rule:evenodd;clip-rule:evenodd;fill:#FFFFFF;}
	.st68{fill:url(#SVGID_59_);}
	.st69{fill:url(#SVGID_60_);}
	.st70{fill:url(#SVGID_61_);}
	.st71{fill:url(#SVGID_62_);}
	.st72{fill:url(#SVGID_63_);}
</style>
<g>
	<path class="st16" d="M125,59.16c17.89,0,20.12,0.07,27.14,0.4c7.01,0.33,11.78,1.43,15.99,3.06c4.35,1.67,8.01,3.94,11.67,7.59
		c3.35,3.29,5.94,7.27,7.59,11.67c1.63,4.19,2.73,8.97,3.06,15.99c0.31,7.02,0.4,9.25,0.4,27.14c0,17.89-0.07,20.12-0.4,27.14
		c-0.33,7.01-1.44,11.78-3.06,15.99c-1.65,4.4-4.24,8.38-7.59,11.67c-3.29,3.35-7.27,5.94-11.67,7.59
		c-4.19,1.63-8.97,2.73-15.99,3.06c-7.02,0.31-9.25,0.4-27.14,0.4c-17.89,0-20.12-0.07-27.14-0.4c-7.01-0.33-11.78-1.44-15.99-3.06
		c-4.4-1.65-8.38-4.24-11.67-7.59c-3.35-3.29-5.94-7.27-7.59-11.67c-1.63-4.19-2.73-8.97-3.06-15.99c-0.31-7.02-0.4-9.25-0.4-27.14
		c0-17.89,0.07-20.12,0.4-27.14c0.33-7.02,1.43-11.78,3.06-15.99c1.65-4.4,4.24-8.38,7.59-11.67c3.29-3.35,7.27-5.94,11.67-7.59
		c4.2-1.63,8.97-2.73,15.99-3.06C104.88,59.25,107.11,59.16,125,59.16z M125,92.08c-8.73,0-17.1,3.47-23.28,9.64
		c-6.17,6.17-9.64,14.55-9.64,23.28s3.47,17.1,9.64,23.28c6.17,6.17,14.55,9.64,23.28,9.64s17.1-3.47,23.28-9.64
		c6.17-6.17,9.64-14.55,9.64-23.28s-3.47-17.1-9.64-23.28C142.1,95.55,133.73,92.08,125,92.08z M167.79,90.44
		c0-2.18-0.87-4.28-2.41-5.82c-1.54-1.54-3.64-2.41-5.82-2.41c-2.18,0-4.28,0.87-5.82,2.41c-1.54,1.54-2.41,3.64-2.41,5.82
		s0.87,4.28,2.41,5.82c1.54,1.54,3.64,2.41,5.82,2.41c2.18,0,4.28-0.87,5.82-2.41C166.93,94.71,167.79,92.62,167.79,90.44z
		 M125,105.25c5.24,0,10.26,2.08,13.97,5.78c3.7,3.7,5.78,8.73,5.78,13.97s-2.08,10.26-5.78,13.97c-3.7,3.7-8.73,5.78-13.97,5.78
		s-10.26-2.08-13.97-5.78c-3.7-3.7-5.78-8.73-5.78-13.97s2.08-10.26,5.78-13.97C114.74,107.33,119.76,105.25,125,105.25z"/>
</g>
</svg>
