<?xml version="1.0" encoding="utf-8"?>
<!-- Generator: Adobe Illustrator 25.4.1, SVG Export Plug-In . SVG Version: 6.00 Build 0)  -->
<svg version="1.1" id="Layer_1" xmlns="http://www.w3.org/2000/svg" xmlns:xlink="http://www.w3.org/1999/xlink" x="0px" y="0px"
	 viewBox="0 0 426.7 350.23" style="enable-background:new 0 0 426.7 350.23;" xml:space="preserve">
<style type="text/css">
	.st0{fill:#00A218;}
	.st1{fill:url(#SVGID_1_);}
	.st2{fill:url(#SVGID_00000124857429901605964700000010342987341127037084_);}
	.st3{fill:url(#SVGID_00000012444801799122447640000008435413760772776621_);}
	.st4{fill:url(#SVGID_00000065070702768125205040000004364391069888591011_);}
	.st5{fill:url(#SVGID_00000137826073415826825980000015419902684116818358_);}
	.st6{fill:url(#SVGID_00000077283529314181731500000018123408354377468037_);}
	.st7{fill:url(#SVGID_00000026126674518680137100000005006869760151604120_);}
	.st8{fill:url(#SVGID_00000077284373550499188210000006901266626841832889_);}
	.st9{fill:url(#SVGID_00000170264408892018565050000003911495023875341191_);}
	.st10{fill:url(#SVGID_00000010992820938540771530000005394535431510840752_);}
	.st11{fill:#253166;}
</style>
<g>
	<g>
		<path class="st0" d="M239.2,285.7c0.16,0.37,0.06,0.64-0.29,0.79l-0.07,0.01c-1.33,0.51-3.1,1.35-5.3,2.54
			c-1.34,0.7-2.92,1.54-4.74,2.51c-0.18,1.73-0.52,3.46-1.02,5.2c-1.12,3.64-2.8,7.37-5.02,11.2c-0.79,1.46-1.86,3.17-3.23,5.15
			c-1.14,1.61-1.75,2.45-1.84,2.51l-0.94,1.15l-0.92,1.22c-2.53,3.12-5.31,6.08-8.33,8.86c-0.29,0.24-0.68,0.56-1.18,0.98
			c-0.04,0.05-0.2,0.2-0.49,0.44c-0.29,0.24-0.52,0.44-0.67,0.61c-1.41,1.14-2.2,1.75-2.38,1.82c-1.59,1.21-3.3,2.36-5.15,3.43
			c-1.85,1.07-3.73,1.91-5.66,2.52l-0.73,0.27c-0.09,0.02-0.18,0.04-0.27,0.08c-0.09,0.04-0.18,0.06-0.27,0.08
			c-0.09,0.02-0.18,0.03-0.28,0.05c-0.86,0.2-1.39,0.31-1.57,0.34c-1.15,0.2-2.25,0.22-3.32,0.07c-1.2-0.12-2.27-0.46-3.22-1.01
			c-1.14-0.61-2.01-1.43-2.61-2.46c-0.22-0.48-0.34-0.77-0.36-0.86l-0.14-0.4l-0.05-0.28l-0.04-0.21c-0.03-0.42-0.05-0.72-0.08-0.91
			l0.05-0.5c-0.01-0.05,0-0.14,0.02-0.29c-0.01-0.05,0.01-0.1,0.05-0.15c0.16-0.97,0.53-2,1.1-3.09c0.78-1.5,1.98-3.17,3.6-5
			c1.27-1.4,2.7-2.84,4.28-4.34c2.73-2.5,5.84-5.03,9.32-7.61c5.47-4.15,12.09-8.63,19.86-13.45c2.65-1.63,5.5-3.32,8.55-5.07
			c0.05-0.53,0.1-1.06,0.15-1.58l0.09-0.72l0.01-0.36c-0.03-0.18-0.02-0.28,0.02-0.29c-0.02-0.09-0.03-0.3-0.04-0.63
			c-0.01-0.33-0.03-0.58-0.06-0.77l-0.16-1.32l-0.12-0.69l-0.17-0.61c-0.58-1.74-1.57-3.08-2.95-4.03c-1.24-0.92-2.84-1.4-4.78-1.45
			c-0.05-0.04-0.29-0.04-0.71-0.02l-0.7,0.05c-0.15-0.02-0.38,0-0.7,0.05c-0.32,0.05-0.53,0.09-0.62,0.11
			c-0.69,0.12-1.59,0.34-2.72,0.68c-1.8,0.5-3.66,1.12-5.56,1.87c-1.89,0.8-3.64,1.64-5.23,2.52c-1.91,0.99-3.53,2.02-4.85,3.1
			l-0.06,0.08c-0.29,0.24-0.62,0.33-0.98,0.27c-0.36-0.06-0.67-0.23-0.9-0.52c-0.42-0.5-0.41-1.02,0.02-1.56l0.23-0.32l0.16-0.31
			c0.08-0.06,0.22-0.2,0.42-0.43l0.76-0.91l1.61-1.76c1.19-1.33,2.19-2.5,3.01-3.49c2.36-2.76,4.31-5.17,5.84-7.23
			c2.08-2.76,3.84-5.3,5.28-7.63l0.62-0.96l0.53-1.01l1.08-1.96c0.88-1.75,1.52-3.14,1.91-4.15l0.19-0.53l0.19-0.53
			c-0.01-0.04,0.04-0.19,0.14-0.45c0.1-0.25,0.16-0.45,0.18-0.6l0.31-1.11c0.03-0.1,0.07-0.28,0.12-0.55
			c0.05-0.27,0.09-0.43,0.13-0.48c0.29-1.61,0.36-3.01,0.2-4.21c-0.13-0.78-0.31-1.41-0.54-1.89c-0.28-0.52-0.63-0.91-1.05-1.17
			c-0.89-0.51-2.1-0.56-3.64-0.16c-0.54,0.14-1.18,0.39-1.92,0.75c-0.61,0.29-1.23,0.66-1.87,1.1c-1.05,0.75-2.16,1.71-3.33,2.9
			c-1.81,1.87-3.68,4.27-5.64,7.19c-1.53,2.39-3.05,5.08-4.57,8.07c-1.32,2.49-2.66,5.29-4.01,8.4c-1.21,2.61-2.41,5.49-3.62,8.62
			c-1.09,2.74-2.18,5.63-3.26,8.7c-4.1,11.65-7.55,23.64-10.35,35.96l-0.06,0.08c-0.08,0.34-0.28,0.61-0.6,0.81
			c-0.32,0.2-0.66,0.23-1.01,0.1c-0.69-0.17-1-0.61-0.93-1.33c-0.01-0.05-0.02-0.09-0.02-0.14c0.04-0.34,0.04-0.57,0.02-0.71
			l0.16-0.74c0.01-0.19,0.05-0.46,0.11-0.8c0.06-0.34,0.09-0.54,0.08-0.58c0.2-1.03,0.38-1.93,0.53-2.71c0.22-1.22,0.55-3,1-5.34
			c0.63-2.94,1.39-6.49,2.28-10.66c1.27-6.07,2.8-13.15,4.58-21.24c1.58-7.02,3.18-14.11,4.79-21.28l2.36-10.6l0.14-0.45
			c-0.11,0.21-0.18,0.34-0.22,0.39c-0.37,0.63-0.84,0.76-1.42,0.38c-0.58-0.33-0.72-0.77-0.44-1.34c0.24-0.51,0.62-1.33,1.14-2.46
			l1.07-2.45c0.48-1.07,0.85-1.92,1.12-2.53c0.48-1.03,0.91-1.85,1.27-2.48c0.18-0.31,0.45-0.53,0.81-0.64
			c0.36-0.11,0.7-0.07,1.01,0.11c0.58,0.33,0.78,0.83,0.61,1.52c-0.26,0.99-0.67,2.73-1.23,5.24l-1.22,5.3l-2.43,10.61
			c-1.61,7.12-3.19,14.19-4.73,21.2c-1.26,5.6-2.5,11.21-3.7,16.85c1.27-3.9,2.45-7.45,3.56-10.66c2.13-6.03,4.38-11.89,6.76-17.58
			c1.35-3.11,2.69-5.96,3.99-8.54c1.55-3.1,3.08-5.86,4.6-8.29c1.92-3.11,3.82-5.66,5.7-7.63c1.28-1.35,2.51-2.46,3.68-3.32
			c0.72-0.5,1.44-0.93,2.19-1.29c0.87-0.43,1.66-0.76,2.38-0.97c0.96-0.21,1.86-0.32,2.71-0.32c1.09,0,2.02,0.25,2.81,0.72
			c0.88,0.46,1.6,1.19,2.14,2.18c0.36,0.74,0.61,1.64,0.75,2.7c0.26,1.51,0.22,3.2-0.13,5.05c-0.24,1.36-0.7,2.95-1.38,4.77
			c-0.38,1.1-1.03,2.56-1.94,4.37c-0.76,1.36-1.16,2.06-1.2,2.12l-0.6,1.02l-0.6,1.02c-1.43,2.42-3.22,5.04-5.38,7.86
			c-1.77,2.33-3.76,4.77-5.97,7.32c-0.04,0.05-0.08,0.11-0.11,0.16c-0.08,0.06-0.12,0.12-0.11,0.16c0.92-0.44,1.88-0.89,2.89-1.34
			c1.99-0.81,3.92-1.5,5.81-2.06c1.26-0.36,2.28-0.6,3.06-0.74c1.02-0.13,1.55-0.19,1.59-0.2l0.84-0.07c0.47,0.01,0.76,0.01,0.85,0
			c0.96,0.07,1.51,0.12,1.65,0.14c0.49,0.11,0.76,0.15,0.8,0.15l0.83,0.28c0.25,0.05,0.39,0.08,0.44,0.07l0.38,0.15
			c0.51,0.24,0.79,0.36,0.84,0.35l0.71,0.44c0.1,0.03,0.23,0.1,0.39,0.22l0.32,0.23c1.02,0.72,1.84,1.53,2.46,2.41
			c0.69,0.97,1.21,1.99,1.58,3.06c0.13,0.5,0.2,0.77,0.21,0.81l0.22,0.88c0.02,0.09,0.08,0.62,0.2,1.59
			c-0.02,0.15-0.03,0.31-0.02,0.5c0.01,0.19,0.02,0.39,0.03,0.6c0.01,0.21,0.01,0.39-0.02,0.53l0,0.42l-0.01,0.36l0,0.42
			c1.56-0.83,2.9-1.56,4.02-2.17c2.38-1.26,4.19-2.13,5.43-2.63C238.78,285.21,239.04,285.32,239.2,285.7z M220.31,306.52
			c2.07-3.61,3.64-7.16,4.69-10.64c0.24-0.8,0.45-1.63,0.63-2.51c-2.37,1.35-4.91,2.89-7.63,4.63c-7.25,4.5-13.82,8.99-19.71,13.5
			c-3.67,2.84-6.7,5.41-9.09,7.71c-1.46,1.38-2.82,2.82-4.08,4.31c-1.41,1.7-2.46,3.28-3.16,4.72c-0.46,0.93-0.74,1.78-0.84,2.55
			c-0.1,0.82,0.06,1.57,0.46,2.26c0.39,0.64,0.98,1.15,1.75,1.54c0.72,0.35,1.54,0.56,2.45,0.64c0.82,0.1,1.71,0.04,2.66-0.17
			c0.14-0.02,0.59-0.13,1.36-0.3c0.04-0.05,0.1-0.09,0.19-0.1s0.17-0.03,0.24-0.04s0.14-0.05,0.23-0.11l0.68-0.19
			c1.77-0.68,3.49-1.52,5.16-2.51c1.76-1.01,3.37-2.09,4.83-3.23c0.13-0.07,0.9-0.67,2.31-1.81c0.12-0.12,0.25-0.22,0.37-0.31
			c0.13-0.09,0.26-0.21,0.4-0.35c0.14-0.14,0.25-0.24,0.34-0.3c0.45-0.41,0.82-0.73,1.11-0.97c2.89-2.67,5.57-5.53,8.02-8.59
			l0.87-1.14l0.92-1.22l1.72-2.35C218.47,309.55,219.51,307.88,220.31,306.52z"/>
		<path class="st0" d="M248.63,283.76c0.32,0.18,0.38,0.43,0.2,0.75c-0.21,0.41-0.52,0.94-0.93,1.57c-0.3,0.43-0.65,0.91-1.03,1.45
			c-0.68,0.97-1.4,1.91-2.13,2.84c-0.77,1.03-1.5,1.96-2.21,2.78c-0.44,0.5-0.83,0.95-1.19,1.34c-0.52,0.56-0.96,0.99-1.34,1.29
			c-0.16,0.17-0.3,0.29-0.43,0.36c-0.17,0.12-0.34,0.22-0.51,0.3c-0.05,0.01-0.11,0.02-0.21,0.04c-0.08,0.06-0.17,0.1-0.26,0.11
			c-0.15-0.02-0.26-0.02-0.36-0.01c-0.04,0.01-0.14,0-0.29-0.02c-0.3-0.09-0.56-0.26-0.79-0.5c-0.28-0.28-0.52-0.69-0.71-1.22
			c-0.05-0.32-0.09-0.69-0.12-1.11c-0.06-0.93,0.03-2.18,0.28-3.73c0.17-0.93,0.41-2.01,0.72-3.24c-0.15-0.02-0.25-0.1-0.32-0.23
			c-0.25-0.33-0.26-0.69-0.04-1.06l0.06-0.08c0.08-0.11,0.19-0.27,0.34-0.48c0.17-0.4,0.27-0.66,0.3-0.76
			c0.24-0.51,0.53-1.04,0.87-1.56l0.06-0.08c0.24-0.28,0.54-0.42,0.92-0.44c0.38-0.02,0.7,0.09,0.98,0.33
			c0.44,0.35,0.57,0.82,0.38,1.42c-0.03,0.1-0.08,0.24-0.14,0.41c-0.06,0.18-0.11,0.33-0.14,0.45c-0.03,0.12-0.07,0.26-0.14,0.41
			c-0.07,0.15-0.12,0.28-0.15,0.38c-0.17,0.64-0.34,1.19-0.5,1.64c-0.4,1.25-0.71,2.36-0.92,3.34c-0.34,1.33-0.49,2.4-0.45,3.19
			c0,0.28,0.02,0.52,0.05,0.7c0.01,0.05,0.02,0.09,0.02,0.14c0.09-0.02,0.2-0.08,0.32-0.2c0.33-0.25,0.75-0.6,1.23-1.06
			c0.37-0.34,0.77-0.75,1.21-1.2c0.72-0.78,1.49-1.65,2.32-2.59c0.74-0.93,1.46-1.83,2.16-2.7c0.39-0.49,0.76-0.96,1.11-1.39
			c0.42-0.59,0.74-1.05,0.97-1.37l-0.01-0.07C247.99,283.59,248.27,283.54,248.63,283.76z M240.26,281.16
			c-0.34-0.08-0.61-0.27-0.8-0.57c-0.19-0.3-0.25-0.64-0.18-1.03c0.2-0.74,0.49-1.55,0.86-2.41c0.14-0.31,0.38-0.53,0.74-0.66
			c0.35-0.13,0.7-0.13,1.03,0c0.33,0.13,0.56,0.38,0.69,0.73c0.13,0.36,0.11,0.71-0.06,1.07c-0.31,0.67-0.54,1.29-0.67,1.88
			c-0.14,0.59-0.48,0.93-1.03,1.02C240.65,281.23,240.46,281.22,240.26,281.16z"/>
		<path class="st0" d="M259.71,281.69c0.4,0,0.59,0.22,0.57,0.65c-0.01,0.24-0.08,0.51-0.21,0.82c-0.11,0.21-0.24,0.42-0.39,0.63
			c-0.24,0.28-0.54,0.59-0.9,0.93c-0.49,0.46-1.15,1.02-1.98,1.68c-0.67,0.49-1.99,1.47-3.96,2.94c-1.13,0.85-2.07,1.56-2.82,2.11
			c-0.41,3.14-1.15,6.4-2.22,9.79c-0.52,1.65-1.1,3.21-1.75,4.69c-0.7,1.72-1.42,3.26-2.18,4.62c-0.47,0.83-0.94,1.55-1.4,2.15
			c-0.31,0.38-0.61,0.72-0.89,1c-0.44,0.45-0.88,0.76-1.33,0.93c-0.17,0.08-0.33,0.15-0.46,0.22c-0.18,0.03-0.35,0.04-0.49,0.01
			c-0.28,0-0.57-0.02-0.86-0.07c-0.54-0.14-1.04-0.41-1.48-0.81c-0.71-0.54-1.26-1.32-1.67-2.33c-0.17-0.44-0.32-0.89-0.44-1.34
			c-0.05-0.27-0.09-0.53-0.13-0.76c0.01-0.19,0-0.42-0.05-0.7c0-0.85,0.1-1.74,0.32-2.67c0.4-1.53,1.15-3.1,2.24-4.7
			c0.87-1.28,1.94-2.58,3.23-3.88c1.09-1.08,2.34-2.22,3.74-3.4c0.95-0.82,2.04-1.72,3.29-2.69c0.05-0.01,0.07-0.06,0.08-0.16
			c0.01-0.1,0.01-0.17,0-0.21c0.18-1.73,0.24-3.32,0.17-4.77c0-0.57-0.05-1.1-0.13-1.6c-0.28,0.28-0.6,0.34-0.96,0.16
			c-0.27-0.19-0.38-0.45-0.35-0.79c0.01-0.24,0.1-0.77,0.29-1.61c0.11-0.49,0.21-0.98,0.32-1.47c0.04-0.34,0.19-0.61,0.46-0.82
			c0.27-0.21,0.58-0.28,0.92-0.19c0.48,0.06,0.81,0.31,0.98,0.75l0.1,0.19c0.58,1.46,0.9,3.22,0.97,5.29c0.03,0.99,0,2.08-0.08,3.27
			c0.5-0.42,1.1-0.87,1.82-1.37c1.98-1.38,3.31-2.33,3.97-2.87c0.75-0.55,1.38-1.06,1.86-1.52c0.33-0.29,0.59-0.55,0.79-0.77
			c0.27-0.33,0.42-0.59,0.43-0.78C259.12,281.88,259.31,281.69,259.71,281.69z M245.63,300.56c0.68-2.38,1.21-4.67,1.59-6.85
			c-0.75,0.6-1.43,1.17-2.05,1.7c-1.36,1.17-2.53,2.3-3.53,3.36c-1.19,1.29-2.19,2.52-2.98,3.7c-0.93,1.48-1.54,2.88-1.83,4.21
			c-0.2,0.74-0.29,1.47-0.27,2.17c0.04,0.23,0.06,0.41,0.06,0.56c0,0.14,0.02,0.3,0.05,0.49c0.11,0.36,0.24,0.69,0.38,1
			c0.32,0.75,0.69,1.3,1.13,1.65c0.22,0.2,0.45,0.3,0.69,0.31c0.1,0.03,0.22,0.06,0.37,0.08l0.07-0.01l0.13-0.09
			c0.18-0.08,0.41-0.26,0.69-0.54c0.2-0.22,0.43-0.5,0.71-0.83c0.38-0.54,0.79-1.17,1.23-1.91c0.68-1.25,1.33-2.71,1.94-4.37
			C244.61,303.68,245.15,302.15,245.63,300.56z M246.39,277.28c0.09-0.3,0.02-0.59-0.22-0.88c-0.24-0.29-0.35-0.61-0.34-0.97
			c0.01-0.36,0.16-0.66,0.44-0.93c0.29-0.26,0.61-0.38,0.97-0.34s0.65,0.17,0.88,0.41c0.4,0.4,0.68,0.94,0.84,1.59
			c0.16,0.66,0.16,1.33-0.01,2.02c-0.2,0.5-0.55,0.8-1.05,0.89c-0.23,0.04-0.47,0.01-0.72-0.09c-0.31-0.14-0.55-0.37-0.72-0.69
			C246.29,277.97,246.26,277.63,246.39,277.28z"/>
		<path class="st0" d="M289.91,255.61c0.23,0.24,0.37,0.5,0.42,0.78l0.01,0.07c0.02,0.38,0,0.83-0.05,1.35
			c-0.04,0.34-0.09,0.7-0.17,1.09c-0.14,0.59-0.31,1.25-0.51,2c-0.37,1.15-0.84,2.43-1.4,3.85c-0.85,2.22-1.87,4.54-3.06,6.97
			c-0.26,0.99-0.44,1.73-0.54,2.22c-0.5,2.07-0.92,3.98-1.28,5.74c-0.86,4.06-1.56,7.98-2.1,11.76c-0.37,2.23-0.61,4.19-0.7,5.85
			c0.01,0.33,0,0.68-0.03,1.07c0.04-0.05,0.05-0.1,0.05-0.15c0.22-0.65,0.37-1.17,0.44-1.56c0.13-0.64,0.48-0.9,1.07-0.78
			c0.58,0.11,0.81,0.49,0.69,1.12c0.02,0.09-0.01,0.19-0.09,0.3c-0.3,0.43-0.58,0.92-0.81,1.48c-0.21,0.46-0.38,0.96-0.52,1.51
			c-0.23,0.6-0.37,1.13-0.44,1.56c-0.04,0.34-0.04,0.6-0.01,0.78l0.01,0.07l0.01,0.07c0.02,0.14,0.04,0.23,0.05,0.28
			c0.02,0.09-0.01,0.22-0.08,0.37l-0.02,0.29l-0.05,0.15c-0.09,0.3-0.26,0.53-0.52,0.69c-0.26,0.16-0.53,0.2-0.83,0.11
			c-0.29-0.05-0.51-0.2-0.64-0.46l-0.45-0.56c-0.06-0.32-0.09-0.67-0.11-1.04c-0.02-0.14-0.02-0.28,0-0.42
			c-0.02-0.14-0.02-0.28,0-0.42c0.01-0.24,0.04-0.76,0.08-1.57c0.07-0.96,0.18-1.97,0.33-3.03c0.18-1.73,0.43-3.71,0.75-5.93
			c0.5-3.44,1.17-7.37,2.02-11.81c0.03-0.1,0.06-0.25,0.1-0.44c0.04-0.2,0.07-0.34,0.1-0.44c-0.05,0.01-0.11,0.11-0.19,0.32
			c-0.08,0.2-0.16,0.36-0.24,0.47c-0.84,1.46-1.51,2.62-2.03,3.46c-0.77,1.27-1.53,2.39-2.26,3.36c-1.07,1.46-1.95,2.53-2.64,3.21
			c-0.33,0.29-0.64,0.51-0.95,0.66c-0.43,0.26-0.85,0.4-1.27,0.43c-0.28,0.05-0.54,0.02-0.79-0.08s-0.49-0.25-0.71-0.44
			c-0.34-0.32-0.6-0.75-0.79-1.28c-0.2-0.63-0.27-1.42-0.19-2.37c0.04-0.62,0.15-1.33,0.35-2.11c0.3-1.28,0.79-2.59,1.45-3.93
			c0.59-1.23,1.28-2.44,2.07-3.61c0.86-1.33,1.73-2.42,2.62-3.28c0.6-0.62,1.16-1.09,1.67-1.42c0.43-0.26,0.82-0.45,1.18-0.56
			c0.27-0.09,0.52-0.13,0.76-0.13c0.23-0.04,0.49-0.01,0.79,0.08c0.49,0.11,0.91,0.36,1.27,0.78c0.29,0.33,0.52,0.69,0.68,1.09
			c0.06,0.08,0.1,0.19,0.13,0.33c-0.01-0.04,0.07-0.25,0.25-0.61c0.42-1.96,0.81-3.7,1.16-5.22c0.65-2.56,1.16-4.52,1.55-5.86
			c0.32-1.14,0.63-2.11,0.92-2.92c0.23-0.56,0.43-1.04,0.6-1.45c0.14-0.31,0.28-0.57,0.43-0.78c0.11-0.21,0.18-0.34,0.22-0.39
			c0.08-0.11,0.21-0.27,0.41-0.49c0.24-0.28,0.53-0.42,0.88-0.43C289.32,255.26,289.63,255.37,289.91,255.61z M280.03,278.61
			c0.5-0.94,1.01-1.96,1.52-3.09l-0.01-0.07l-0.01-0.07c-0.11-0.64-0.3-1.18-0.56-1.6c-0.18-0.2-0.32-0.37-0.44-0.49
			c-0.16-0.11-0.31-0.16-0.45-0.14c-0.1-0.03-0.17-0.04-0.22-0.03c-0.04,0.05-0.13,0.09-0.26,0.12c-0.18,0.08-0.37,0.2-0.57,0.38
			c-0.37,0.3-0.77,0.72-1.2,1.27c-0.75,0.88-1.49,1.91-2.24,3.07c-0.62,1.05-1.23,2.17-1.83,3.36c-0.63,1.29-1.14,2.44-1.53,3.45
			c-0.22,0.65-0.4,1.25-0.54,1.79c-0.13,0.63-0.16,1.16-0.08,1.57c0.03,0.18,0.08,0.34,0.15,0.47c0.05,0.04,0.11,0.08,0.16,0.11
			c0.01,0.05,0.06,0.06,0.15,0.04c0.15,0.02,0.33-0.01,0.55-0.09c0.26-0.14,0.51-0.3,0.77-0.48c0.79-0.61,1.65-1.53,2.57-2.78
			c0.69-0.92,1.43-2.01,2.2-3.28C278.88,280.86,279.51,279.69,280.03,278.61z M278.68,302.55l-0.01-0.07l-0.15-0.04l0.01,0.07
			C278.54,302.6,278.59,302.62,278.68,302.55z"/>
		<path class="st0" d="M290.75,277.13c0.76-0.27,1.48-0.72,2.17-1.36c0.66-0.58,1.23-1.25,1.71-1.99c0.49-0.7,0.93-1.46,1.31-2.28
			c0.17-0.4,0.33-0.81,0.5-1.22c0.02-0.15,0.08-0.37,0.17-0.67l0.03-0.22l0.02-0.29l0.06-0.08c0.01-0.24-0.03-0.44-0.11-0.62
			c-0.12-0.12-0.22-0.17-0.31-0.16s-0.18,0.05-0.26,0.12c-0.22,0.09-0.41,0.24-0.56,0.45c-0.05,0.01-0.11,0.07-0.18,0.17
			c-0.04,0.05-0.08,0.11-0.11,0.16c-0.15,0.21-0.25,0.35-0.29,0.4c-0.04,0.05-0.24,0.37-0.62,0.96c-0.36,0.63-0.74,1.31-1.14,2.04
			c-0.75,1.4-1.38,2.81-1.9,4.22c-0.24,0.8-0.44,1.54-0.61,2.23c-0.2,0.79-0.29,1.49-0.28,2.1c-0.03,0.1-0.03,0.26,0.01,0.49
			c0.02,0.09,0.02,0.26,0.01,0.49l0.1,0.2c0.02,0.09,0.03,0.16,0.04,0.21l0.1,0.2l0.1,0.19l0.01,0.07l0.09,0.13l0.09,0.13
			c0.16,0.11,0.25,0.19,0.25,0.24l0.23,0.1l0.15,0.04l0.08,0.06c0.04-0.01,0.07,0.01,0.08,0.06l0.14-0.02
			c0.2,0.06,0.48,0.04,0.84-0.07c0.27-0.09,0.57-0.24,0.92-0.44c0.56-0.33,1.17-0.77,1.83-1.3c1.03-0.88,2.16-2,3.39-3.34
			c0.99-1.11,2-2.35,3.05-3.71c0.23-0.32,0.51-0.34,0.84-0.07c0.28,0.24,0.32,0.49,0.13,0.76c-1.02,1.5-2,2.82-2.93,3.97
			c-1.16,1.47-2.28,2.7-3.33,3.69c-0.74,0.64-1.41,1.16-2,1.54c-0.47,0.32-0.88,0.53-1.24,0.64c-0.57,0.24-1.1,0.35-1.57,0.34
			c-0.24-0.01-0.4-0.03-0.5-0.06c-0.1-0.03-0.17-0.04-0.22-0.03l-0.16-0.11l-0.37-0.08c-0.05-0.04-0.18-0.11-0.39-0.22
			c-0.05-0.04-0.27-0.21-0.66-0.52c-0.05-0.04-0.14-0.14-0.26-0.31l-0.16-0.11l-0.1-0.2c-0.12-0.17-0.19-0.28-0.2-0.32l-0.21-0.39
			c-0.06-0.08-0.1-0.19-0.13-0.33l-0.14-0.4c-0.09-0.5-0.14-0.97-0.17-1.39c-0.06-1.45,0.21-3.18,0.82-5.17
			c0.45-1.54,1.07-3.11,1.88-4.71c0.39-0.77,0.78-1.5,1.18-2.18c0.26-0.42,0.5-0.79,0.73-1.12c0.16-0.17,0.3-0.33,0.41-0.49
			l0.54-0.59c0.24-0.23,0.48-0.39,0.7-0.47c0.17-0.12,0.43-0.26,0.78-0.42c0.71-0.26,1.4-0.24,2.07,0.07
			c0.67,0.31,1.11,0.83,1.33,1.54c0.19,0.58,0.2,1.17,0.02,1.77l0.06-0.08l-0.14,0.45l-0.08,0.37c-0.1,0.25-0.2,0.51-0.29,0.76
			c-0.21,0.46-0.41,0.9-0.63,1.31c-0.52,0.84-1.06,1.65-1.64,2.4c-0.62,0.81-1.3,1.52-2.04,2.12c-0.87,0.71-1.75,1.22-2.64,1.51
			c-0.36,0.11-0.62-0.01-0.77-0.36C290.28,277.54,290.4,277.28,290.75,277.13z"/>
		<path class="st0" d="M328.08,270c0.4,0,0.59,0.22,0.57,0.65c-0.01,0.24-0.08,0.51-0.21,0.82c-0.11,0.21-0.24,0.42-0.39,0.63
			c-0.24,0.28-0.54,0.59-0.9,0.93c-0.49,0.46-1.15,1.02-1.98,1.68c-0.67,0.49-1.99,1.47-3.96,2.94c-1.13,0.85-2.07,1.56-2.83,2.11
			c-0.41,3.14-1.15,6.4-2.22,9.79c-0.52,1.65-1.1,3.21-1.75,4.69c-0.7,1.72-1.42,3.26-2.18,4.62c-0.47,0.83-0.94,1.55-1.4,2.15
			c-0.31,0.38-0.61,0.72-0.89,1c-0.44,0.45-0.88,0.76-1.33,0.93c-0.17,0.08-0.33,0.15-0.46,0.22c-0.18,0.03-0.35,0.04-0.49,0.01
			c-0.28,0-0.57-0.02-0.86-0.07c-0.54-0.14-1.04-0.41-1.48-0.81c-0.71-0.54-1.26-1.32-1.67-2.33c-0.17-0.44-0.32-0.89-0.44-1.34
			c-0.05-0.27-0.09-0.53-0.13-0.76c0.01-0.19,0-0.42-0.05-0.7c0-0.85,0.1-1.74,0.32-2.67c0.4-1.53,1.15-3.1,2.24-4.7
			c0.87-1.28,1.94-2.58,3.23-3.88c1.09-1.08,2.34-2.22,3.74-3.4c0.95-0.82,2.04-1.72,3.29-2.69c0.05-0.01,0.07-0.06,0.08-0.16
			c0.01-0.1,0.01-0.17,0-0.21c0.18-1.73,0.24-3.32,0.17-4.77c0-0.57-0.05-1.1-0.13-1.6c-0.28,0.28-0.6,0.34-0.96,0.17
			c-0.27-0.19-0.38-0.45-0.35-0.79c0.01-0.24,0.1-0.77,0.29-1.61c0.1-0.49,0.21-0.98,0.31-1.47c0.04-0.34,0.19-0.61,0.46-0.82
			c0.27-0.21,0.58-0.28,0.92-0.19c0.48,0.06,0.81,0.31,0.98,0.75l0.1,0.19c0.58,1.46,0.9,3.22,0.97,5.29c0.03,0.99,0,2.08-0.08,3.27
			c0.5-0.42,1.1-0.87,1.82-1.37c1.98-1.38,3.31-2.33,3.97-2.87c0.75-0.55,1.38-1.06,1.86-1.52c0.33-0.29,0.59-0.55,0.79-0.77
			c0.27-0.33,0.42-0.59,0.43-0.78C327.49,270.18,327.68,270,328.08,270z M314,288.87c0.68-2.38,1.21-4.67,1.59-6.86
			c-0.75,0.6-1.43,1.17-2.05,1.7c-1.36,1.17-2.53,2.3-3.53,3.36c-1.2,1.29-2.19,2.52-2.98,3.7c-0.93,1.48-1.54,2.88-1.83,4.21
			c-0.2,0.74-0.29,1.47-0.27,2.17c0.04,0.23,0.06,0.41,0.06,0.56c0,0.14,0.02,0.3,0.05,0.49c0.11,0.36,0.24,0.69,0.38,1
			c0.32,0.75,0.69,1.3,1.13,1.65c0.22,0.2,0.45,0.3,0.69,0.31c0.1,0.03,0.22,0.06,0.37,0.08l0.07-0.01l0.13-0.09
			c0.17-0.08,0.4-0.26,0.69-0.54c0.2-0.22,0.43-0.5,0.71-0.83c0.38-0.54,0.79-1.17,1.23-1.91c0.68-1.25,1.33-2.71,1.94-4.37
			C312.98,291.99,313.52,290.46,314,288.87z M314.76,265.59c0.09-0.3,0.02-0.59-0.22-0.88c-0.24-0.29-0.35-0.61-0.34-0.97
			s0.16-0.66,0.44-0.92c0.29-0.26,0.61-0.38,0.97-0.34c0.36,0.03,0.65,0.17,0.88,0.42c0.4,0.4,0.68,0.94,0.84,1.59
			c0.16,0.66,0.16,1.33-0.01,2.02c-0.2,0.5-0.55,0.8-1.05,0.89c-0.23,0.04-0.47,0.01-0.72-0.09c-0.31-0.14-0.55-0.37-0.72-0.69
			C314.65,266.28,314.63,265.94,314.76,265.59z"/>
		<path class="st0" d="M341.72,268.02c0.33,0.25,0.35,0.54,0.08,0.87c-0.67,0.77-1.55,1.4-2.65,1.87c-0.92,0.39-1.95,0.62-3.07,0.67
			c-0.47,0.03-0.99,0.03-1.56-0.02l-0.08-0.06c0.02,0.14,0.01,0.23-0.02,0.29c0.02,0.66,0.02,1.2-0.01,1.63
			c-0.06,0.48-0.18,1-0.37,1.55c-0.28,1.13-0.68,2.12-1.19,2.96c-0.28,0.57-0.6,1.02-0.97,1.37c-0.53,0.51-1.08,0.87-1.66,1.06
			c-0.31,0.1-0.68,0.16-1.1,0.19l-0.22-0.03c-0.09,0.02-0.19,0.01-0.29-0.02c-0.1-0.03-0.22-0.06-0.37-0.08
			c-0.1-0.03-0.18-0.07-0.23-0.1c-0.66-0.27-1.21-0.74-1.66-1.42c-0.28-0.52-0.52-1.09-0.72-1.72c-0.14-0.54-0.21-1.12-0.23-1.73
			c-0.03-0.18-0.03-0.44,0.01-0.78c-0.04-0.23-0.04-0.51,0-0.85c0.01-0.47,0.07-1,0.15-1.58c0.37-2.23,1.11-4.25,2.22-6.04
			c0.3-0.47,0.62-0.93,0.97-1.37c0.43-0.5,0.88-0.91,1.35-1.22c0.3-0.19,0.6-0.36,0.91-0.51c0.22-0.08,0.42-0.14,0.61-0.18
			c0.05-0.01,0.16-0.03,0.34-0.06l0.14-0.02c0.15,0.02,0.26,0.03,0.36,0.01c0.39,0.08,0.73,0.25,1.01,0.53
			c0.22,0.2,0.4,0.43,0.54,0.69c0.08,0.18,0.15,0.35,0.23,0.53c0.02,0.09,0.03,0.18,0.05,0.28l0.02,0.14l0.04,0.21
			c0.06,0.32-0.02,0.64-0.23,0.96s-0.49,0.49-0.87,0.5c-0.73,0.12-1.23-0.17-1.5-0.88l0.01,0.07l-0.07,0.01
			c-0.25,0.18-0.52,0.44-0.79,0.77s-0.52,0.68-0.74,1.05c-0.93,1.48-1.56,3.14-1.91,5c-0.06,0.48-0.1,0.91-0.13,1.3
			c-0.04,0.57-0.06,1.02-0.05,1.35c-0.03,0.38,0,0.8,0.07,1.26c0.06,0.37,0.17,0.7,0.31,1.01c0.15,0.3,0.3,0.51,0.46,0.63
			c0.12,0.12,0.36,0.15,0.72,0.09c0.28-0.05,0.56-0.19,0.85-0.43c0.28-0.28,0.56-0.59,0.83-0.92c0.4-0.68,0.76-1.5,1.07-2.45
			c0.15-0.5,0.26-0.94,0.34-1.33c0.08-0.34,0.12-0.8,0.12-1.37c0-0.24-0.02-0.52-0.07-0.84c-0.48-0.3-0.88-0.7-1.2-1.21
			c-0.38-0.55-0.59-1.1-0.64-1.66c0.01-0.24,0.02-0.43,0.04-0.57c0.04-0.05,0.06-0.12,0.07-0.19c0.01-0.07,0.04-0.14,0.07-0.19
			c0.11-0.16,0.26-0.28,0.43-0.36c0.17-0.12,0.35-0.18,0.54-0.16c0.1,0.03,0.22,0.06,0.37,0.08c0.2,0.06,0.38,0.17,0.55,0.33
			c0.22,0.2,0.41,0.47,0.57,0.82c0.13,0.21,0.25,0.48,0.35,0.79c0.13,0.5,0.24,1,0.33,1.5l0.08,0.06l0.29,0.02
			c0.48,0.06,0.94,0.1,1.37,0.12c0.98-0.07,1.89-0.28,2.73-0.61c0.89-0.34,1.6-0.84,2.15-1.5
			C341.12,267.81,341.4,267.77,341.72,268.02z M331.62,265.25l-0.01-0.07L331.62,265.25z"/>
		<path class="st0" d="M357.45,265.15c0.27,0.19,0.33,0.44,0.2,0.75c-0.45,1.25-0.87,2.34-1.28,3.26c-0.61,1.38-1.16,2.49-1.63,3.32
			c-0.19,0.27-0.38,0.54-0.57,0.8c-0.27,0.33-0.54,0.59-0.79,0.77c-0.21,0.18-0.4,0.3-0.57,0.38c-0.18,0.08-0.36,0.13-0.54,0.16
			c-0.18,0.03-0.35,0.01-0.51-0.06c-0.34-0.04-0.64-0.17-0.92-0.41c-0.16-0.11-0.33-0.28-0.51-0.48c-0.21-0.39-0.5-1-0.88-1.83
			c-0.31-0.7-0.53-1.18-0.67-1.44c-0.13-0.21-0.25-0.36-0.36-0.43l-0.08-0.06l-0.07,0.01c-0.18,0.08-0.35,0.18-0.51,0.3
			c-0.28,0.29-0.62,0.67-1,1.16c-0.31,0.43-0.63,0.88-0.97,1.37c-0.59,0.95-1.17,1.99-1.73,3.13c-0.21,0.41-0.45,0.95-0.72,1.61
			c-0.41,0.92-0.69,1.51-0.83,1.77l0.01,0.07c-0.24,0.28-0.54,0.43-0.91,0.48c-0.37,0.04-0.69-0.06-0.97-0.29
			c-0.38-0.27-0.54-0.64-0.48-1.12l0.02-0.29l-0.04-0.21l0.07-0.44l0.13-0.87l0.2-1.73l0.41-3.4l0.37-2.82
			c-0.23,0.04-0.43-0.02-0.6-0.18c-0.28-0.24-0.35-0.51-0.21-0.81c0.09-0.3,0.2-0.62,0.33-0.98c0.14-0.26,0.28-0.54,0.42-0.85
			l0.41-0.92c0.17-0.36,0.34-0.65,0.49-0.86c0.18-0.31,0.44-0.52,0.78-0.63c0.34-0.1,0.64-0.06,0.91,0.13
			c0.47,0.25,0.69,0.61,0.68,1.09l0,0.42c-0.12,0.68-0.28,1.79-0.49,3.34l-0.41,3.4l-0.18,1.45c0.35-0.72,0.58-1.18,0.68-1.39
			c0.36-0.63,0.65-1.15,0.87-1.57c0.4-0.68,0.78-1.22,1.14-1.61c0.32-0.34,0.63-0.6,0.92-0.8c0.26-0.14,0.5-0.23,0.73-0.27
			c0.13-0.07,0.26-0.1,0.41-0.1c0.14,0,0.29,0.01,0.43,0.03c0.29,0.04,0.57,0.14,0.83,0.28c0.21,0.11,0.42,0.26,0.64,0.46
			c0.23,0.24,0.47,0.56,0.73,0.94c0.15,0.35,0.4,0.95,0.73,1.79c0.15,0.35,0.25,0.62,0.28,0.8c0.14,0.26,0.24,0.45,0.31,0.58
			c0.12-0.12,0.27-0.25,0.43-0.39c0.16-0.15,0.32-0.35,0.46-0.61c0.54-0.71,1.15-1.68,1.83-2.93c0.26-0.42,0.53-0.92,0.81-1.48
			c0.4-0.68,0.71-1.21,0.93-1.58C356.81,265.01,357.08,264.93,357.45,265.15z"/>
		<path class="st0" d="M377.45,262.09c0.11,0.36-0.02,0.59-0.38,0.7l-0.14,0.02c-0.18,0.08-0.37,0.2-0.57,0.38
			c-0.26,0.14-0.49,0.3-0.7,0.47c-0.43,0.26-0.89,0.6-1.38,1.02c-0.92,0.72-1.8,1.49-2.65,2.29c-1.64,1.46-3.29,3.11-4.96,4.95
			c-0.16,0.17-0.42,0.45-0.78,0.84c-0.13,1.16-0.26,2.19-0.39,3.11c-0.37,2.8-0.75,5.16-1.13,7.06c-0.49,2.68-1.01,5.01-1.57,6.99
			c-0.35,1.24-0.74,2.42-1.17,3.53c-0.22,0.65-0.45,1.21-0.7,1.68c0.01,0.04-0.05,0.17-0.18,0.38c-0.13,0.21-0.23,0.37-0.31,0.48
			c-0.25,0.47-0.41,0.75-0.49,0.86c-0.46,0.64-0.98,1.16-1.58,1.54c-0.76,0.51-1.52,0.76-2.28,0.74c-0.93,0.06-1.74-0.22-2.41-0.86
			c-0.61-0.56-1-1.27-1.14-2.14l-0.08-0.48c-0.02-0.09-0.01-0.19,0.02-0.29l-0.04-0.21l0.04-1l0.05-0.93
			c0.01-0.24,0.03-0.41,0.06-0.5l0.07-0.44c-0.01-0.05,0.02-0.18,0.07-0.4c0.06-0.22,0.1-0.41,0.12-0.55l0.2-0.88l0.14-0.45
			l0.14-0.45l0.28-0.83c0.74-2.01,1.81-4.18,3.21-6.49c1.15-1.8,2.55-3.74,4.17-5.81c0.66-0.82,1.37-1.67,2.11-2.55
			c0.32-1.99,0.56-3.75,0.72-5.29c0.05-0.25,0.12-0.78,0.22-1.6c0.1-0.82,0.17-1.47,0.23-1.95c0.05-0.25,0.1-0.63,0.16-1.16
			c-0.19,0.27-0.38,0.54-0.57,0.8c-0.22,0.37-0.55,0.88-0.97,1.55c-0.43,0.66-0.74,1.13-0.93,1.4c-0.91,1.33-1.66,2.31-2.26,2.94
			c-0.28,0.28-0.55,0.52-0.8,0.7c-0.21,0.13-0.38,0.23-0.51,0.3c-0.26,0.14-0.53,0.21-0.81,0.21c-0.66,0.02-1.18-0.27-1.56-0.87
			c-0.25-0.38-0.38-0.83-0.37-1.35c-0.05-0.56,0.02-1.25,0.21-2.09c0.1-0.54,0.27-1.16,0.53-1.86c0.45-1.21,1-2.32,1.63-3.32
			c0.37-0.58,0.73-1.09,1.08-1.53c0.47-0.55,0.96-1.04,1.45-1.45c0.37-0.3,0.72-0.5,1.03-0.6c0.09-0.02,0.2-0.06,0.33-0.13
			c0.09-0.02,0.16-0.03,0.21-0.04c0.09-0.02,0.16-0.03,0.21-0.04c0.38-0.02,0.72,0.07,1.03,0.25c0.27,0.19,0.47,0.42,0.61,0.67
			c0.08,0.22,0.15,0.47,0.2,0.75c0.02,0.38-0.04,0.74-0.17,1.09c-0.12,0.4-0.38,0.54-0.78,0.42c-0.21-0.11-0.33-0.25-0.36-0.43
			l-0.01-0.07c-0.1-0.31-0.19-0.54-0.25-0.67c-0.06-0.08-0.12-0.12-0.16-0.11l0.01,0.07c0.01,0.05,0.06,0.08,0.16,0.11l-0.06,0.08
			c-0.08,0.06-0.22,0.2-0.42,0.43c-0.24,0.28-0.54,0.68-0.92,1.22c-0.34,0.48-0.64,0.94-0.9,1.36c-0.33,0.58-0.6,1.07-0.81,1.48
			c-0.43,0.78-0.7,1.28-0.81,1.48c-0.25,0.47-0.45,0.95-0.6,1.45c-0.23,0.61-0.36,1.08-0.39,1.41c0.01,0.09,0.04,0.21,0.06,0.34
			c0.04-0.01,0.09-0.04,0.13-0.09c0.22-0.09,0.43-0.24,0.63-0.46c0.57-0.52,1.3-1.36,2.19-2.5c0.61-0.86,1.27-1.82,1.98-2.89
			l1.01-1.52c0.3-0.47,0.46-0.74,0.5-0.79c0.16-0.17,0.3-0.31,0.42-0.43c0.12-0.11,0.22-0.2,0.31-0.26
			c0.09-0.02,0.16-0.03,0.21-0.04c0.04-0.05,0.1-0.09,0.2-0.1c0.15,0.02,0.27,0.05,0.37,0.08c0.14,0.02,0.27,0.07,0.38,0.15
			c0.11,0.08,0.19,0.16,0.25,0.24c0.02,0.09,0.05,0.16,0.1,0.19c0.01,0.05,0.02,0.14,0.05,0.28c0.02,0.09,0.04,0.23,0.07,0.41
			l0.01,0.49l0.01,0.92c0.01,0.61-0.01,1.21-0.05,1.78c-0.03,0.67-0.11,1.84-0.25,3.51c-0.08,0.63-0.14,1.25-0.18,1.87
			c1.56-1.64,3.14-3.16,4.74-4.56c0.85-0.81,1.73-1.59,2.64-2.36c0.54-0.42,1.02-0.79,1.44-1.1c0.26-0.14,0.51-0.3,0.77-0.48
			c0.38-0.25,0.71-0.41,0.98-0.45C377.03,261.57,377.29,261.69,377.45,262.09z M360.15,289.26c0.89-3.36,1.74-7.61,2.56-12.76
			c-1.79,2.24-3.3,4.43-4.54,6.58c-1.32,2.21-2.31,4.26-2.98,6.17l-0.21,0.82l-0.14,0.45l-0.08,0.37l-0.2,0.88
			c0.01,0.04-0.04,0.31-0.15,0.8l0,0.42c-0.04,0.05-0.05,0.13-0.03,0.22l-0.05,0.15l0,0.85l0.07,0.84l-0.05,0.15
			c0.02,0.09,0.03,0.16,0.04,0.21l0.06,0.34c0.16,0.4,0.38,0.69,0.65,0.88c0.22,0.2,0.5,0.28,0.82,0.25
			c0.33-0.03,0.65-0.2,0.98-0.49c0.37-0.3,0.67-0.63,0.89-1l0.39-0.63c0.03-0.1,0.09-0.24,0.18-0.42c0.09-0.18,0.15-0.27,0.2-0.28
			c0.23-0.61,0.42-1.13,0.58-1.59C359.54,291.46,359.88,290.39,360.15,289.26z M357.68,269.86l-0.07,0.01L357.68,269.86z"/>
		<path class="st0" d="M377.28,262.33c0.76-0.27,1.48-0.72,2.17-1.36c0.65-0.58,1.22-1.25,1.71-1.99c0.49-0.7,0.93-1.46,1.31-2.28
			c0.17-0.4,0.33-0.81,0.5-1.22c0.02-0.15,0.08-0.37,0.17-0.67l0.03-0.22l0.02-0.29l0.06-0.08c0.01-0.24-0.03-0.44-0.11-0.62
			c-0.12-0.12-0.22-0.17-0.31-0.16c-0.09,0.02-0.18,0.05-0.26,0.12c-0.22,0.09-0.41,0.24-0.56,0.45c-0.05,0.01-0.11,0.07-0.18,0.17
			c-0.04,0.05-0.08,0.11-0.11,0.16c-0.15,0.21-0.25,0.35-0.29,0.4c-0.04,0.05-0.24,0.37-0.62,0.96c-0.36,0.63-0.74,1.31-1.14,2.04
			c-0.75,1.4-1.38,2.81-1.9,4.22c-0.24,0.8-0.44,1.54-0.61,2.23c-0.2,0.79-0.29,1.49-0.28,2.1c-0.03,0.1-0.03,0.26,0.01,0.49
			c0.02,0.09,0.02,0.26,0.01,0.49l0.1,0.2c0.02,0.09,0.03,0.16,0.04,0.21l0.1,0.2l0.1,0.19l0.01,0.07l0.09,0.13l0.09,0.13
			c0.16,0.11,0.25,0.19,0.25,0.24l0.23,0.1l0.15,0.04l0.08,0.06c0.04-0.01,0.07,0.01,0.08,0.06l0.14-0.02
			c0.2,0.06,0.48,0.04,0.84-0.07c0.27-0.09,0.57-0.24,0.92-0.44c0.56-0.33,1.17-0.77,1.83-1.3c1.03-0.88,2.16-2,3.39-3.34
			c0.99-1.11,2.01-2.35,3.05-3.71c0.23-0.32,0.51-0.34,0.84-0.07c0.28,0.24,0.32,0.49,0.13,0.76c-1.02,1.5-2,2.82-2.93,3.97
			c-1.16,1.47-2.28,2.7-3.33,3.69c-0.74,0.64-1.41,1.16-2,1.54c-0.47,0.32-0.88,0.53-1.24,0.64c-0.57,0.24-1.1,0.35-1.57,0.34
			c-0.24-0.01-0.41-0.03-0.51-0.06c-0.1-0.03-0.17-0.04-0.22-0.03l-0.16-0.11l-0.37-0.08c-0.05-0.04-0.18-0.11-0.39-0.22
			c-0.05-0.04-0.27-0.21-0.66-0.52c-0.05-0.04-0.14-0.14-0.26-0.31l-0.16-0.11l-0.1-0.2c-0.12-0.17-0.19-0.28-0.2-0.32l-0.21-0.39
			c-0.06-0.08-0.1-0.19-0.13-0.33l-0.14-0.4c-0.09-0.5-0.14-0.97-0.17-1.39c-0.06-1.45,0.21-3.18,0.82-5.17
			c0.45-1.54,1.07-3.11,1.88-4.71c0.39-0.77,0.78-1.5,1.18-2.18c0.26-0.42,0.5-0.79,0.73-1.12c0.16-0.17,0.3-0.33,0.41-0.49
			l0.54-0.59c0.24-0.23,0.48-0.39,0.7-0.47c0.17-0.12,0.43-0.26,0.78-0.42c0.71-0.26,1.4-0.24,2.07,0.07
			c0.67,0.31,1.11,0.83,1.33,1.54c0.19,0.58,0.2,1.17,0.02,1.77l0.06-0.08l-0.14,0.45l-0.08,0.37c-0.1,0.25-0.2,0.51-0.29,0.76
			c-0.21,0.46-0.41,0.9-0.62,1.31c-0.52,0.84-1.06,1.65-1.64,2.4c-0.62,0.81-1.3,1.52-2.04,2.12c-0.87,0.71-1.75,1.22-2.64,1.51
			c-0.36,0.11-0.62-0.01-0.77-0.36C376.81,262.74,376.93,262.48,377.28,262.33z"/>
		<path class="st0" d="M404.91,257.04c0.27,0.19,0.33,0.44,0.2,0.75c-0.45,1.25-0.87,2.34-1.28,3.26c-0.61,1.38-1.16,2.49-1.63,3.32
			c-0.19,0.27-0.38,0.54-0.57,0.81c-0.27,0.33-0.54,0.59-0.79,0.77c-0.21,0.18-0.4,0.3-0.57,0.38c-0.18,0.08-0.36,0.13-0.54,0.16
			c-0.18,0.03-0.35,0.01-0.51-0.06c-0.34-0.04-0.64-0.17-0.92-0.41c-0.16-0.11-0.33-0.28-0.51-0.48c-0.21-0.39-0.5-1-0.88-1.83
			c-0.31-0.7-0.53-1.18-0.67-1.44c-0.13-0.21-0.25-0.36-0.36-0.43l-0.08-0.06l-0.07,0.01c-0.18,0.08-0.35,0.18-0.51,0.3
			c-0.28,0.29-0.62,0.67-1,1.16c-0.31,0.43-0.63,0.89-0.97,1.37c-0.59,0.95-1.17,1.99-1.73,3.13c-0.21,0.41-0.45,0.95-0.72,1.61
			c-0.41,0.92-0.69,1.51-0.83,1.77l0.01,0.07c-0.24,0.28-0.54,0.43-0.91,0.47c-0.37,0.04-0.69-0.06-0.97-0.29
			c-0.38-0.27-0.53-0.64-0.48-1.12l0.02-0.29l-0.04-0.21l0.07-0.44l0.13-0.87l0.2-1.73l0.41-3.4l0.37-2.82
			c-0.23,0.04-0.43-0.02-0.6-0.18c-0.28-0.24-0.35-0.51-0.21-0.81c0.09-0.3,0.2-0.62,0.33-0.98c0.14-0.26,0.28-0.54,0.42-0.85
			l0.41-0.92c0.17-0.36,0.34-0.65,0.49-0.86c0.18-0.31,0.44-0.52,0.78-0.63c0.34-0.1,0.64-0.06,0.91,0.13
			c0.47,0.25,0.69,0.61,0.68,1.09l0,0.42c-0.12,0.68-0.28,1.79-0.49,3.34l-0.41,3.4l-0.18,1.45c0.35-0.72,0.58-1.18,0.68-1.39
			c0.36-0.63,0.65-1.15,0.87-1.57c0.4-0.68,0.78-1.22,1.14-1.61c0.32-0.34,0.63-0.6,0.92-0.79c0.26-0.14,0.5-0.23,0.73-0.27
			c0.13-0.07,0.26-0.1,0.41-0.1c0.14,0,0.29,0.01,0.43,0.03c0.29,0.04,0.57,0.14,0.83,0.28c0.21,0.11,0.42,0.26,0.64,0.46
			c0.23,0.24,0.47,0.56,0.73,0.94c0.15,0.35,0.4,0.95,0.73,1.79c0.15,0.35,0.25,0.62,0.28,0.8c0.14,0.26,0.24,0.45,0.31,0.58
			c0.12-0.12,0.27-0.25,0.43-0.39c0.16-0.15,0.32-0.35,0.46-0.61c0.54-0.71,1.15-1.68,1.83-2.93c0.26-0.42,0.53-0.92,0.81-1.48
			c0.4-0.68,0.71-1.21,0.93-1.58C404.27,256.89,404.54,256.82,404.91,257.04z"/>
		<path class="st0" d="M419.85,254.8c0.22,0.32,0.16,0.6-0.17,0.84c-0.05,0.01-0.13,0.07-0.25,0.18l-0.25,0.19l-0.49,0.44
			l-0.97,0.95l-2.03,1.76c-1.51,1.39-2.86,2.61-4.05,3.67c0.25,0.9,0.29,1.84,0.13,2.81c-0.26,1.23-0.75,2.37-1.46,3.44
			c-0.81,1.08-1.75,1.9-2.83,2.47c-0.7,0.31-1.36,0.49-1.96,0.55c-0.7,0.03-1.38-0.13-2.03-0.47c-0.65-0.34-1.16-0.78-1.54-1.33
			c-0.25-0.34-0.4-0.66-0.45-0.98c-0.05-0.28-0.06-0.51-0.05-0.7c0.04-0.29,0.17-0.52,0.38-0.7c0.11-0.16,0.29-0.26,0.52-0.3
			c0.14-0.02,0.3-0.06,0.48-0.12c0.18-0.05,0.36-0.12,0.53-0.2c0.31-0.15,0.67-0.38,1.09-0.68c0.64-0.39,1.36-0.89,2.15-1.5
			c0.72-0.5,1.49-1.1,2.31-1.81c-0.02-0.09-0.03-0.16-0.04-0.21l-0.01-0.07l-0.09-0.13c-0.09-0.27-0.33-0.54-0.7-0.8
			c-0.28-0.23-0.65-0.5-1.13-0.8c-1.73-1.03-2.68-1.62-2.85-1.78c-0.6-0.46-1.08-0.93-1.44-1.38c-0.18-0.25-0.36-0.58-0.52-0.97
			c-0.15-0.3-0.24-0.69-0.27-1.16c-0.11-0.64-0.08-1.31,0.08-2c0.14-0.59,0.37-1.17,0.69-1.75c0.49-0.98,1.15-1.94,1.98-2.89
			c0.75-0.83,1.59-1.62,2.5-2.34c1.09-0.8,2.15-1.36,3.18-1.68c0.22-0.08,0.44-0.1,0.66-0.04c0.22,0.06,0.42,0.17,0.59,0.32
			c0.17,0.16,0.3,0.35,0.38,0.57c0.02,0.09,0.04,0.21,0.06,0.34c0.02,0.09,0.01,0.19-0.02,0.29l-0.05,0.15
			c-0.06,0.2-0.09,0.32-0.08,0.37c-0.03,0.1-0.09,0.28-0.19,0.53c-0.04,0.05-0.17,0.36-0.41,0.92l-0.82,1.84
			c-0.27,0.61-0.5,1.2-0.69,1.75c-0.13,0.35-0.24,0.66-0.34,0.91c-0.02,0.15-0.04,0.29-0.07,0.44c-0.03,0.1-0.04,0.17-0.03,0.22
			c-0.05,0.01-0.06,0.04-0.06,0.08c0.06,0.37-0.1,0.58-0.49,0.65c-0.39,0.07-0.62-0.11-0.69-0.52c0.03-0.1,0.06-0.22,0.08-0.37
			c-0.02-0.09-0.01-0.19,0.02-0.29c0.02-0.15,0.06-0.32,0.12-0.52l0.26-0.96c0.16-0.73,0.31-1.37,0.45-1.92
			c0.08-0.39,0.15-0.8,0.21-1.24c-0.17,0.12-0.34,0.25-0.5,0.37c-0.75,0.55-1.45,1.19-2.08,1.91c-0.67,0.78-1.2,1.55-1.58,2.32
			c-0.47,0.84-0.66,1.55-0.55,2.15l0.02,0.14c0.05,0.27,0.16,0.53,0.34,0.76c0.18,0.23,0.49,0.5,0.92,0.8
			c0.11,0.08,0.98,0.61,2.61,1.61c0.58,0.37,1.09,0.71,1.52,1.01c0.28,0.28,0.51,0.53,0.69,0.73c0.23,0.24,0.42,0.52,0.57,0.82
			c1.15-1,2.4-2.09,3.76-3.26l2.04-1.76l0.98-0.88l0.56-0.45l0.24-0.25c0.12-0.12,0.22-0.2,0.31-0.27
			C419.35,254.43,419.63,254.49,419.85,254.8z M401.83,256.01c0.01,0.05-0.01,0.07-0.06,0.08L401.83,256.01z M409.06,265.18
			c-0.01-0.05-0.02-0.11-0.04-0.21c-0.58,0.48-1.1,0.9-1.56,1.26c-0.83,0.66-1.59,1.21-2.26,1.66c-0.47,0.27-0.88,0.5-1.22,0.7
			c-0.22,0.08-0.47,0.17-0.73,0.27c-0.04,0.05-0.13,0.09-0.26,0.12c0.07,0.13,0.16,0.26,0.28,0.38c0.24,0.29,0.56,0.5,0.96,0.62
			c0.36,0.17,0.72,0.21,1.08,0.1c0.32-0.05,0.67-0.21,1.05-0.46c0.62-0.49,1.2-1.15,1.71-1.99
			C408.58,266.77,408.91,265.96,409.06,265.18z M409.3,246.73l0.08,0.06l-0.01-0.07L409.3,246.73z"/>
	</g>
	<g>
		<g>
			<g>
				<linearGradient id="SVGID_1_" gradientUnits="userSpaceOnUse" x1="266.1524" y1="67.235" x2="377.2961" y2="67.235">
					<stop  offset="0" style="stop-color:#DD057E"/>
					<stop  offset="1" style="stop-color:#412C81"/>
				</linearGradient>
				<path class="st1" d="M299.38,16.14c-4.61-2.8-9.79-3.94-14.32-1.17c-0.77,0.63-1.46,1.38-2.13,2.11
					c-0.43,0.47-0.89,1.08-0.68,1.69c0.09,0.26,0.3,0.46,0.5,0.66c3.49,3.39,6.81,6.96,9.93,10.69c0.54,0.64,1.09,1.32,1.27,2.14
					c0.18,0.82-0.13,1.81-0.91,2.13c-1.02,0.42-2.06-0.47-2.82-1.27c-2.94-3.1-6.11-5.96-9.49-8.57c-0.62-0.48-1.29-0.97-2.06-1.08
					c-1.83-0.27-3.24,1.52-4.21,3.09c-0.15,0.24-0.3,0.5-0.29,0.78c0.02,0.35,0.29,0.62,0.55,0.86c3.33,3.1,6.67,6.2,10,9.3
					c0.56,0.52,1.14,1.06,1.46,1.76c0.33,0.69,0.35,1.59-0.15,2.17c-0.51,0.6-1.43,0.7-2.18,0.46c-0.75-0.24-1.37-0.77-1.97-1.28
					c-2.69-2.3-5.37-4.59-8.06-6.89c-0.6-0.51-1.23-1.04-1.99-1.23c-1.36-0.34-2.76,0.49-3.67,1.55c-2.19,2.52-2.47,6.3-1.41,9.46
					c1.07,3.16,3.3,5.8,5.72,8.09c3.52,3.33,7.67,6.16,12.39,7.25c2.11,0.49,4.47,0.58,6.32-0.56c0,0,4.21-2.3,6.77-5.12
					c0.71-0.78,1.28-1.16,1.91-1.14c14.24,14.52,67.07,70.28,70.76,69.06c4.15-1.38,6.45-4.6,6.68-6.68
					c0.16-1.44-33.71-34.29-55.53-55.19c-8.49-8.33-15.38-15.02-15.07-15.32c0.81-0.81,3.31-3.36,4.17-5.51
					c1.62-4.03,1.66-6.58,0.04-9.86C308.85,24.35,304.46,19.23,299.38,16.14z"/>
			</g>
			
				<linearGradient id="SVGID_00000008830973017734154380000003258465955423320471_" gradientUnits="userSpaceOnUse" x1="276.3144" y1="66.4417" x2="384.0265" y2="66.4417">
				<stop  offset="0" style="stop-color:#FBE909"/>
				<stop  offset="1" style="stop-color:#009A3E"/>
			</linearGradient>
			<path style="fill:url(#SVGID_00000008830973017734154380000003258465955423320471_);" d="M379.23,41.18
				c1.3-1.82,2.33-3.86,3.27-6.15c2.88-7.01,1.83-14.1-4.27-19c-6.87-5.52-16.61-5.3-24.17-1.35
				c-10.06,5.25-13.24,15.55-11.31,26.22c0.63,3.5-3.75,6.34-6.07,8.68c-2.86,2.88-60.7,63.93-60.36,64.96
				c1.41,4.18,4.69,6.4,6.81,6.55c1.47,0.1,35.01-35.9,56.35-59.08c4.22-4.48,8.01-8.53,10.81-11.44c3.23,0.96,6.93,0.99,9.83,0.58
				c4.73-0.66,9.48-2.18,13.54-4.74C376.01,44.93,377.78,43.2,379.23,41.18z"/>
		</g>
		
			<linearGradient id="SVGID_00000178897761532302491710000017848550452178052031_" gradientUnits="userSpaceOnUse" x1="315.1938" y1="121.8031" x2="339.953" y2="121.8031">
			<stop  offset="0" style="stop-color:#FBE909"/>
			<stop  offset="1" style="stop-color:#E33319"/>
		</linearGradient>
		<path style="fill:url(#SVGID_00000178897761532302491710000017848550452178052031_);" d="M315.19,121.8
			c0-6.82,5.38-12.38,12.2-12.38c7,0,12.56,5.56,12.56,12.38s-5.56,12.38-12.56,12.38C320.58,134.18,315.19,128.62,315.19,121.8z"/>
		<g>
			<g>
				
					<linearGradient id="SVGID_00000007427328217283289960000011514425223223200137_" gradientUnits="userSpaceOnUse" x1="-251.5118" y1="189.2033" x2="-200.623" y2="189.2033" gradientTransform="matrix(-1 0 0 1 -138.3235 0)">
					<stop  offset="0" style="stop-color:#9DD6F5"/>
					<stop  offset="1" style="stop-color:#195DA5"/>
				</linearGradient>
				<path style="fill:url(#SVGID_00000007427328217283289960000011514425223223200137_);" d="M75.73,216.77
					c0,0-5.92,0.28-13.43-2.27c11.89-4.01,29.74-16.98,31.57-52.88h19.32c-0.29,6.52-1.25,11.7-2.35,16.76
					C107.25,193.7,98.25,214.33,75.73,216.77z"/>
				
					<linearGradient id="SVGID_00000136403781520489960980000009667351583412810387_" gradientUnits="userSpaceOnUse" x1="13.7536" y1="194.6007" x2="113.1883" y2="194.6007">
					<stop  offset="0" style="stop-color:#DD057E"/>
					<stop  offset="1" style="stop-color:#412C81"/>
				</linearGradient>
				<path style="fill:url(#SVGID_00000136403781520489960980000009667351583412810387_);" d="M75.71,216.77
					c0,0-5.91,0.28-13.43-2.27c-7.52,2.55-13.43,2.27-13.43,2.27c-22.52-2.45-31.52-23.08-35.11-38.39
					c4.33,19.86,15.47,38.36,34.51,46.29c20.07,8.37,41.57-2.44,52.77-20.14c7.18-11.32,10.83-24.96,11.92-38.32
					c0.13-1.51,0.24-3.03,0.24-4.56C113.19,161.65,112,212.84,75.71,216.77z"/>
				
					<linearGradient id="SVGID_00000026123930746165857820000016265086047525021611_" gradientUnits="userSpaceOnUse" x1="30.72" y1="188.0627" x2="93.868" y2="188.0627">
					<stop  offset="0" style="stop-color:#FBE909"/>
					<stop  offset="1" style="stop-color:#009A3E"/>
				</linearGradient>
				<path style="fill:url(#SVGID_00000026123930746165857820000016265086047525021611_);" d="M93.87,161.62
					c-1.18,5.53-5.37,40.66-31.58,40.5c-27.92,0.16-31.52-40.28-31.56-40.5c2.01,37.08,19.67,48.86,31.56,52.88
					C74.18,210.49,92.18,199.91,93.87,161.62z"/>
				
					<linearGradient id="SVGID_00000075141635062962310380000013476868714419022262_" gradientUnits="userSpaceOnUse" x1="10.1438" y1="138.214" x2="62.284" y2="138.214">
					<stop  offset="0" style="stop-color:#FBE909"/>
					<stop  offset="1" style="stop-color:#E33319"/>
				</linearGradient>
				<path style="fill:url(#SVGID_00000075141635062962310380000013476868714419022262_);" d="M31.35,168.98
					c-1.15-10.82-1.52-20.69-1.55-21.65V59.65H10.5v89.15h0.08c0.07,3.94,0.24,7.4,1,14.56c0.21,2.49,0.47,4.91,0.79,7.22
					c0.01,0.06,0.01,0.08,0.01,0.08l0.01,0.01c0.39,2.69,0.85,5.27,1.38,7.71c3.58,15.31,12.58,35.95,35.11,38.39
					c0,0,5.91,0.28,13.43-2.27C51.25,210.76,35.08,199.32,31.35,168.98z"/>
				<g>
					
						<linearGradient id="SVGID_00000162351864996299230580000010592457272689610160_" gradientUnits="userSpaceOnUse" x1="57.8325" y1="109.2449" x2="99.4467" y2="130.3876">
						<stop  offset="0" style="stop-color:#DD057E"/>
						<stop  offset="1" style="stop-color:#412C81"/>
					</linearGradient>
					<path style="fill:url(#SVGID_00000162351864996299230580000010592457272689610160_);" d="M29.64,99.43h64.45
						c5.56,0,10.06,4.5,10.06,10.06v14.89H29.64V99.43z"/>
				</g>
			</g>
			
				<linearGradient id="SVGID_00000039816230904710288470000005631307986495565487_" gradientUnits="userSpaceOnUse" x1="10.2855" y1="111.2856" x2="43.5098" y2="129.7436">
				<stop  offset="0" style="stop-color:#9DD6F5"/>
				<stop  offset="1" style="stop-color:#195DA5"/>
			</linearGradient>
			<path style="fill:url(#SVGID_00000039816230904710288470000005631307986495565487_);" d="M66.9,111.91c0,0-39.73,4.15-56.4,30.32
				V97.6C10.5,97.6,33.53,95.58,66.9,111.91z"/>
			
				<linearGradient id="SVGID_00000016073513852040057070000009657239466352897980_" gradientUnits="userSpaceOnUse" x1="48.4483" y1="123.8385" x2="83.3087" y2="117.977">
				<stop  offset="0" style="stop-color:#FBE909"/>
				<stop  offset="1" style="stop-color:#009A3E"/>
			</linearGradient>
			<path style="fill:url(#SVGID_00000016073513852040057070000009657239466352897980_);" d="M29.64,124.38h68.5
				c-7.55-4.09-31.24-12.47-31.24-12.47S42.76,114.8,29.64,124.38z"/>
		</g>
		<path class="st11" d="M135.73,63.05c0-1.79,1.62-3.41,3.41-3.41h15.25c1.8,0,3.41,1.62,3.41,3.41v96.78
			c3.59-2.69,10.59-5.92,19.02-5.92c22.79,0,32.11,17.58,32.11,35.7v34.45c0,1.79-1.62,3.41-3.41,3.41h-14.53
			c-1.97,0-3.41-1.62-3.41-3.41v-34.63c0-9.87-5.56-16.15-14.17-16.15c-8.25,0-13.81,5.38-15.61,12.74v38.03
			c0,1.97-1.08,3.41-3.77,3.41h-14.89c-1.79,0-3.41-1.62-3.41-3.41V63.05z"/>
		<path class="st11" d="M227.77,159.11c0-1.97,1.62-3.41,3.41-3.41h14.71c1.79,0,3.41,1.44,3.41,3.41v35.34
			c0,9.51,4.84,15.43,13.1,15.43c7.53,0,13.28-7,14.35-13.46v-37.32c0-2.69,1.08-3.41,3.95-3.41h13.63c1.8,0,3.41,1.44,3.41,3.41
			v64.94c0,1.79-1.61,3.41-3.41,3.41h-6.64c-1.79,0-2.87-1.26-3.41-2.69l-2.15-5.92c-3.23,2.87-9.87,10.4-24.04,10.4
			c-22.25,0-30.32-17.04-30.32-35.34V159.11z"/>
		<path class="st11" d="M319.27,159.11c0-1.97,1.62-3.41,3.41-3.41h14.89c1.79,0,3.41,1.44,3.41,3.41v64.94
			c0,1.79-1.62,3.41-3.41,3.41h-14.89c-1.79,0-3.41-1.62-3.41-3.41V159.11z"/>
		<path class="st11" d="M358.56,218.85l4.84-9.69c0.72-1.79,2.51-2.15,4.13-1.26c0,0,8.07,4.31,16.32,4.31c3.59,0,6.1-1.44,6.1-4.49
			c0-3.23-2.51-5.2-12.02-8.97c-13.81-5.38-20.27-12.74-20.27-23.68c0-10.94,8.07-21.17,26.37-21.17c10.59,0,18.3,3.05,22.07,5.56
			c1.61,1.08,2.51,3.05,1.61,4.84l-4.48,9.15c-0.9,1.62-2.87,1.79-4.31,1.26c0,0-8.07-3.77-14.89-3.77c-4.3,0-6.1,1.79-6.1,4.13
			c0,3.23,3.23,4.3,9.87,7c13.81,5.38,24.22,11.3,24.22,25.3c0,11.84-10.41,21.89-28.53,21.89c-11.84,0-20.09-3.77-23.86-6.64
			C358.56,221.72,357.84,220.29,358.56,218.85z"/>
	</g>
</g>
</svg>
