<?xml version="1.0" encoding="utf-8"?>
<!-- Generator: Adobe Illustrator 25.3.0, SVG Export Plug-In . SVG Version: 6.00 Build 0)  -->
<svg version="1.1" id="Layer_1" xmlns="http://www.w3.org/2000/svg" xmlns:xlink="http://www.w3.org/1999/xlink" x="0px" y="0px"
	 viewBox="0 0 250 250" style="enable-background:new 0 0 250 250;" xml:space="preserve">
<style type="text/css">
	.st0{fill:#49210C;}
	.st1{fill:url(#SVGID_2_);}
	.st2{fill:#223264;}
	.st3{fill:url(#SVGID_3_);}
	.st4{fill:url(#SVGID_4_);}
	.st5{fill:url(#SVGID_5_);}
	.st6{fill:url(#SVGID_6_);}
	.st7{fill:url(#SVGID_7_);}
	.st8{fill:url(#SVGID_8_);}
	.st9{fill:url(#SVGID_9_);}
	.st10{fill:url(#SVGID_10_);}
	.st11{fill:url(#SVGID_11_);}
	.st12{fill:url(#SVGID_12_);}
	.st13{fill:none;}
	.st14{fill:none;stroke:#141414;stroke-width:0.5;stroke-miterlimit:10;}
	.st15{fill:none;stroke:url(#SVGID_13_);stroke-width:4;stroke-miterlimit:10;}
	.st16{fill:#FFFFFF;}
	.st17{enable-background:new    ;}
	.st18{fill:url(#SVGID_14_);}
	.st19{fill:url(#SVGID_15_);}
	.st20{fill:url(#SVGID_16_);}
	.st21{fill:url(#SVGID_17_);}
	.st22{fill:url(#SVGID_18_);}
	.st23{fill:url(#SVGID_19_);}
	.st24{fill:url(#SVGID_20_);}
	.st25{fill:url(#SVGID_21_);}
	.st26{fill:url(#SVGID_22_);}
	.st27{fill:url(#SVGID_23_);}
	.st28{fill:url(#SVGID_24_);}
	.st29{fill:none;stroke:url(#SVGID_25_);stroke-width:4;stroke-miterlimit:10;}
	.st30{fill:none;stroke:#223264;stroke-miterlimit:10;}
	.st31{fill:#008B2F;}
	.st32{fill:#9B600A;}
	.st33{fill:none;stroke:#000000;stroke-width:0.25;stroke-miterlimit:10;}
	.st34{fill:url(#SVGID_26_);}
	.st35{fill:url(#SVGID_27_);}
	.st36{fill:url(#SVGID_28_);}
	.st37{fill:url(#SVGID_29_);}
	.st38{fill:url(#SVGID_30_);}
	.st39{fill:url(#SVGID_31_);}
	.st40{fill:url(#SVGID_32_);}
	.st41{fill:url(#SVGID_33_);}
	.st42{fill:url(#SVGID_34_);}
	.st43{fill:url(#SVGID_35_);}
	.st44{fill:none;stroke:url(#SVGID_36_);stroke-width:4;stroke-miterlimit:10;}
	.st45{fill:none;stroke:url(#SVGID_37_);stroke-width:4;stroke-miterlimit:10;}
	.st46{fill:none;stroke:url(#SVGID_38_);stroke-width:4;stroke-miterlimit:10;}
	.st47{fill:none;stroke:url(#SVGID_39_);stroke-width:4;stroke-miterlimit:10;}
	.st48{fill:#93C01F;}
	.st49{fill:#CABA9F;}
	.st50{clip-path:url(#SVGID_41_);}
	.st51{clip-path:url(#SVGID_43_);}
	.st52{fill:url(#SVGID_44_);}
	.st53{fill:url(#SVGID_45_);}
	.st54{fill:url(#SVGID_46_);}
	.st55{fill:url(#SVGID_47_);}
	.st56{fill:url(#SVGID_48_);}
	.st57{fill:url(#SVGID_49_);}
	.st58{fill:url(#SVGID_50_);}
	.st59{fill:url(#SVGID_51_);}
	.st60{fill:url(#SVGID_52_);}
	.st61{fill:url(#SVGID_53_);}
	.st62{fill:none;stroke:url(#SVGID_54_);stroke-width:4;stroke-miterlimit:10;}
	.st63{fill:none;stroke:url(#SVGID_55_);stroke-width:4;stroke-miterlimit:10;}
	.st64{fill:none;stroke:url(#SVGID_56_);stroke-width:4;stroke-miterlimit:10;}
	.st65{fill:none;stroke:url(#SVGID_57_);stroke-width:4;stroke-miterlimit:10;}
	.st66{fill:url(#SVGID_58_);}
	.st67{fill-rule:evenodd;clip-rule:evenodd;fill:#FFFFFF;}
	.st68{fill:url(#SVGID_59_);}
	.st69{fill:url(#SVGID_60_);}
	.st70{fill:url(#SVGID_61_);}
	.st71{fill:url(#SVGID_62_);}
	.st72{fill:url(#SVGID_63_);}
</style>
<g>
	<g id="logo_2_">
		<g>
			<g>
				<path class="st16" d="M178.01,71.7c-14.06-14.08-32.77-21.83-52.69-21.84c-41.06,0-74.48,33.4-74.49,74.46
					c-0.01,13.12,3.42,25.94,9.94,37.23L50.2,200.14l39.49-10.36c10.88,5.93,23.13,9.06,35.6,9.06h0.03c0,0,0,0,0,0
					c41.05,0,74.47-33.41,74.49-74.47C199.81,104.48,192.07,85.77,178.01,71.7z M125.31,186.27h-0.02
					c-11.11,0-22.01-2.99-31.51-8.63l-2.26-1.34l-23.43,6.15l6.25-22.84l-1.47-2.34c-6.2-9.85-9.47-21.24-9.47-32.94
					c0.01-34.13,27.79-61.89,61.94-61.89c16.54,0.01,32.08,6.45,43.77,18.15c11.69,11.7,18.12,27.25,18.12,43.79
					C187.21,158.51,159.44,186.27,125.31,186.27z M159.27,139.92c-1.86-0.93-11.01-5.43-12.72-6.05c-1.71-0.62-2.95-0.93-4.19,0.93
					c-1.24,1.86-4.81,6.05-5.89,7.3c-1.09,1.24-2.17,1.4-4.03,0.47c-1.86-0.93-7.86-2.9-14.97-9.24
					c-5.53-4.93-9.27-11.03-10.35-12.89c-1.09-1.86-0.12-2.87,0.82-3.8c0.84-0.83,1.86-2.17,2.79-3.26c0.93-1.09,1.24-1.86,1.86-3.1
					c0.62-1.24,0.31-2.33-0.16-3.26c-0.46-0.93-4.19-10.09-5.74-13.82c-1.51-3.63-3.05-3.14-4.19-3.19
					c-1.08-0.05-2.33-0.07-3.57-0.07c-1.24,0-3.26,0.47-4.96,2.33c-1.71,1.86-6.51,6.36-6.51,15.52c0,9.16,6.67,18.01,7.6,19.25
					c0.93,1.24,13.12,20.04,31.8,28.1c4.44,1.92,7.91,3.06,10.61,3.92c4.46,1.42,8.52,1.22,11.72,0.74
					c3.58-0.53,11.01-4.5,12.56-8.85c1.55-4.35,1.55-8.07,1.09-8.85C162.38,141.31,161.14,140.85,159.27,139.92z"/>
			</g>
		</g>
	</g>
</g>
</svg>
