<?xml version="1.0" encoding="utf-8"?>
<!-- Generator: Adobe Illustrator 25.3.0, SVG Export Plug-In . SVG Version: 6.00 Build 0)  -->
<svg version="1.1" id="Layer_1" xmlns="http://www.w3.org/2000/svg" xmlns:xlink="http://www.w3.org/1999/xlink" x="0px" y="0px"
	 viewBox="0 0 250 250" style="enable-background:new 0 0 250 250;" xml:space="preserve">
<style type="text/css">
	.st0{fill:#49210C;}
	.st1{fill:url(#SVGID_2_);}
	.st2{fill:#223264;}
	.st3{fill:url(#SVGID_3_);}
	.st4{fill:url(#SVGID_4_);}
	.st5{fill:url(#SVGID_5_);}
	.st6{fill:url(#SVGID_6_);}
	.st7{fill:url(#SVGID_7_);}
	.st8{fill:url(#SVGID_8_);}
	.st9{fill:url(#SVGID_9_);}
	.st10{fill:url(#SVGID_10_);}
	.st11{fill:url(#SVGID_11_);}
	.st12{fill:url(#SVGID_12_);}
	.st13{fill:none;}
	.st14{fill:none;stroke:#141414;stroke-width:0.5;stroke-miterlimit:10;}
	.st15{fill:none;stroke:url(#SVGID_13_);stroke-width:4;stroke-miterlimit:10;}
	.st16{fill:#FFFFFF;}
	.st17{enable-background:new    ;}
	.st18{fill:url(#SVGID_14_);}
	.st19{fill:url(#SVGID_15_);}
	.st20{fill:url(#SVGID_16_);}
	.st21{fill:url(#SVGID_17_);}
	.st22{fill:url(#SVGID_18_);}
	.st23{fill:url(#SVGID_19_);}
	.st24{fill:url(#SVGID_20_);}
	.st25{fill:url(#SVGID_21_);}
	.st26{fill:url(#SVGID_22_);}
	.st27{fill:url(#SVGID_23_);}
	.st28{fill:url(#SVGID_24_);}
	.st29{fill:none;stroke:url(#SVGID_25_);stroke-width:4;stroke-miterlimit:10;}
	.st30{fill:none;stroke:#223264;stroke-miterlimit:10;}
	.st31{fill:#008B2F;}
	.st32{fill:#9B600A;}
	.st33{fill:none;stroke:#000000;stroke-width:0.25;stroke-miterlimit:10;}
	.st34{fill:url(#SVGID_26_);}
	.st35{fill:url(#SVGID_27_);}
	.st36{fill:url(#SVGID_28_);}
	.st37{fill:url(#SVGID_29_);}
	.st38{fill:url(#SVGID_30_);}
	.st39{fill:url(#SVGID_31_);}
	.st40{fill:url(#SVGID_32_);}
	.st41{fill:url(#SVGID_33_);}
	.st42{fill:url(#SVGID_34_);}
	.st43{fill:url(#SVGID_35_);}
	.st44{fill:none;stroke:url(#SVGID_36_);stroke-width:4;stroke-miterlimit:10;}
	.st45{fill:none;stroke:url(#SVGID_37_);stroke-width:4;stroke-miterlimit:10;}
	.st46{fill:none;stroke:url(#SVGID_38_);stroke-width:4;stroke-miterlimit:10;}
	.st47{fill:none;stroke:url(#SVGID_39_);stroke-width:4;stroke-miterlimit:10;}
	.st48{fill:#93C01F;}
	.st49{fill:#CABA9F;}
	.st50{clip-path:url(#SVGID_41_);}
	.st51{clip-path:url(#SVGID_43_);}
	.st52{fill:url(#SVGID_44_);}
	.st53{fill:url(#SVGID_45_);}
	.st54{fill:url(#SVGID_46_);}
	.st55{fill:url(#SVGID_47_);}
	.st56{fill:url(#SVGID_48_);}
	.st57{fill:url(#SVGID_49_);}
	.st58{fill:url(#SVGID_50_);}
	.st59{fill:url(#SVGID_51_);}
	.st60{fill:url(#SVGID_52_);}
	.st61{fill:url(#SVGID_53_);}
	.st62{fill:none;stroke:url(#SVGID_54_);stroke-width:4;stroke-miterlimit:10;}
	.st63{fill:none;stroke:url(#SVGID_55_);stroke-width:4;stroke-miterlimit:10;}
	.st64{fill:none;stroke:url(#SVGID_56_);stroke-width:4;stroke-miterlimit:10;}
	.st65{fill:none;stroke:url(#SVGID_57_);stroke-width:4;stroke-miterlimit:10;}
	.st66{fill:url(#SVGID_58_);}
	.st67{fill-rule:evenodd;clip-rule:evenodd;fill:#FFFFFF;}
	.st68{fill:url(#SVGID_59_);}
	.st69{fill:url(#SVGID_60_);}
	.st70{fill:url(#SVGID_61_);}
	.st71{fill:url(#SVGID_62_);}
	.st72{fill:url(#SVGID_63_);}
</style>
<g>
	<linearGradient id="SVGID_2_" gradientUnits="userSpaceOnUse" x1="187.9066" y1="62.0935" x2="62.0936" y2="187.9064">
		<stop  offset="0" style="stop-color:#00FB73"/>
		<stop  offset="1" style="stop-color:#00B25B"/>
	</linearGradient>
	<circle class="st1" cx="125" cy="125" r="88.96"/>
	<path class="st16" d="M76.93,175.34l7.42-27.68c-4.2-7.58-6.41-16.07-6.41-24.69c0-28.18,22.92-51.1,51.1-51.1
		c28.18,0,51.1,22.92,51.1,51.1c0,28.18-22.92,51.1-51.1,51.1c-8.46,0-16.81-2.14-24.29-6.19L76.93,175.34z M106.14,157.52
		l1.75,1.04c6.43,3.83,13.75,5.86,21.16,5.86c22.85,0,41.44-18.59,41.44-41.44s-18.59-41.44-41.44-41.44
		c-22.85,0-41.44,18.59-41.44,41.44c0,7.55,2.1,14.97,6.06,21.49l1.07,1.76l-4.14,15.45L106.14,157.52z"/>
	<path class="st67" d="M148.05,130.09c-2.1-1.26-4.84-2.66-7.32-1.65c-1.9,0.78-3.11,3.75-4.35,5.27c-0.63,0.78-1.39,0.9-2.36,0.51
		c-7.14-2.84-12.6-7.61-16.54-14.17c-0.67-1.02-0.55-1.82,0.26-2.77c1.19-1.4,2.68-2.99,3.01-4.88c0.32-1.89-0.56-4.09-1.34-5.77
		c-1-2.15-2.11-5.21-4.26-6.43c-1.98-1.12-4.58-0.49-6.34,0.94c-3.04,2.48-4.51,6.36-4.46,10.2c0.01,1.09,0.15,2.18,0.4,3.24
		c0.61,2.54,1.79,4.91,3.11,7.16c0.99,1.7,2.08,3.35,3.24,4.93c3.82,5.18,8.57,9.69,14.06,13.06c2.75,1.68,5.71,3.16,8.77,4.17
		c3.44,1.14,6.5,2.32,10.21,1.61c3.88-0.74,7.72-3.14,9.26-6.89c0.46-1.11,0.68-2.34,0.43-3.51
		C153.29,132.7,150.01,131.26,148.05,130.09z"/>
</g>
</svg>
